<svg xmlns="http://www.w3.org/2000/svg" fill="none" viewBox="0 0 107 107" height="214px" width="214px">
<g clip-path="url(#clip0_408_185)">
<path fill="#AFB9D2" d="M75.6403 25.8275C75.0438 25.8275 74.4593 25.5394 74.1036 25.0058L72.0543 21.9323C70.7789 20.0171 70.1032 17.7904 70.1013 15.4916C70.0961 8.98068 64.7994 3.68962 58.2948 3.68962H48.7063C42.2017 3.68962 36.905 8.98089 36.8998 15.4864C36.8979 17.7906 36.2222 20.0174 34.9468 21.9325L32.8975 25.006C32.331 25.8528 31.187 26.0798 30.3391 25.5178C29.4915 24.9521 29.2626 23.8062 29.8273 22.9594L31.8766 19.8859C32.7466 18.5798 33.2079 17.0573 33.2097 15.4882C33.2173 6.94518 40.1687 0 48.7063 0H58.2943C66.832 0 73.7834 6.94518 73.7907 15.483C73.7926 17.0575 74.2538 18.58 75.1238 19.8861L77.1731 22.9596C77.7378 23.8065 77.5092 24.9523 76.6613 25.518C76.3472 25.7268 75.9913 25.8275 75.6403 25.8275Z"></path>
<path fill="#AFB9D2" d="M55.3449 20.293H51.6553V33.2068H55.3449V20.293Z"></path>
<path fill="#AFB9D2" d="M28.8016 20.736C28.2898 19.8514 27.1657 19.5505 26.2811 20.0604C25.3992 20.5703 25.0965 21.6982 25.6054 22.581L35.5619 39.8276L38.7579 37.9827L28.8016 20.736Z"></path>
<path fill="#959CB3" d="M38.7556 37.981L34.958 31.4037L31.7628 33.2485L35.5604 39.8258L38.7556 37.981Z"></path>
<path fill="#FFD782" d="M47.0429 26.5046L21.4803 41.2633C20.598 41.7728 19.4697 41.4704 18.9604 40.5881C15.9038 35.2939 17.7178 28.5243 23.0118 25.4677L32.5977 19.9331C37.8919 16.8765 44.6615 18.6905 47.7181 23.9845C48.2276 24.8668 47.9252 25.9951 47.0429 26.5046Z"></path>
<path fill="#FFC36E" d="M29.988 35.4479L29.285 34.23C26.694 29.7422 27.6133 24.2023 31.1752 20.7545L23.0119 25.4675C17.7177 28.5241 15.9037 35.2937 18.9605 40.5879C19.47 41.4702 20.5983 41.7724 21.4805 41.2631L30.5424 36.0312C30.3243 35.8807 30.1295 35.6929 29.988 35.4479Z"></path>
<path fill="#AFB9D2" d="M78.1984 20.736C78.7102 19.8514 79.8343 19.5505 80.719 20.0604C81.6009 20.5703 81.9035 21.6982 81.3946 22.581L71.4382 39.8276L68.2422 37.9827L78.1984 20.736Z"></path>
<path fill="#959CB3" d="M71.9423 31.5678L68.2412 37.9782L71.4364 39.823L75.1375 33.4126L71.9423 31.5678Z"></path>
<path fill="#FFD782" d="M59.9574 26.5046L85.5199 41.2633C86.4023 41.7728 87.5306 41.4704 88.0401 40.5881C91.0967 35.2939 89.2827 28.5243 83.9885 25.4677L74.4026 19.9331C69.1084 16.8765 62.3388 18.6905 59.2822 23.9845C58.7727 24.8668 59.0751 25.9951 59.9574 26.5046Z"></path>
<path fill="#FFC36E" d="M77.0119 35.4479L77.715 34.23C80.306 29.7422 79.3866 24.2023 75.8247 20.7545L83.9881 25.4675C89.2823 28.5241 91.0962 35.2937 88.0396 40.5879C87.5301 41.4702 86.4018 41.7724 85.5195 41.2631L76.4575 36.0312C76.6759 35.8807 76.8707 35.6929 77.0119 35.4479Z"></path>
<path fill="#5B5D6E" d="M42.2906 95.225C42.0049 94.5347 41.332 94.0862 40.5861 94.0862H36.638C35.9759 94.0862 35.365 94.4411 35.0365 95.0158L29.7651 104.24C29.3066 105.042 29.5128 106.06 30.247 106.622C30.5793 106.876 30.9739 107 31.3659 107C31.8416 107 32.3134 106.818 32.6712 106.46L41.8916 97.2354C42.4185 96.7075 42.5763 95.9149 42.2906 95.225Z"></path>
<path fill="#464655" d="M40.5861 94.0862H36.638C35.9759 94.0862 35.3651 94.4411 35.0365 95.0158L32.7256 99.0594C34.2434 100.029 35.8309 100.892 37.4823 101.646L41.8916 97.2352C42.4185 96.7073 42.5763 95.9146 42.2906 95.2246C42.0049 94.5345 41.3318 94.0862 40.5861 94.0862Z"></path>
<path fill="#5B5D6E" d="M64.7139 95.225C64.9993 94.5349 65.6723 94.0862 66.4183 94.0862H70.3665C71.0285 94.0862 71.6394 94.4411 71.9679 95.0158L77.2393 104.24C77.6979 105.042 77.4916 106.06 76.7574 106.622C76.4251 106.876 76.0306 107 75.6385 107C75.1629 107 74.691 106.818 74.3332 106.46L65.1128 97.2354C64.586 96.7075 64.4282 95.9149 64.7139 95.225Z"></path>
<path fill="#464655" d="M66.4183 94.0862H70.3665C71.0285 94.0862 71.6394 94.4411 71.9679 95.0158L74.2789 99.0594C72.761 100.029 71.1736 100.892 69.5222 101.646L65.1128 97.2352C64.586 96.7073 64.4282 95.9146 64.7139 95.2246C64.9998 94.5347 65.6727 94.0862 66.4183 94.0862Z"></path>
<path fill="#646464" d="M55.3495 22.1379H51.6599C50.6411 22.1379 49.8149 21.3128 49.8149 20.293C49.8149 19.2734 50.6411 18.4481 51.6599 18.4481H55.3495C56.3683 18.4481 57.1944 19.2732 57.1944 20.293C57.1942 21.3128 56.3683 22.1379 55.3495 22.1379Z"></path>
<path fill="#707487" d="M53.5 99.6208C71.8397 99.6208 86.707 84.7535 86.707 66.4138C86.707 48.0741 71.8397 33.2068 53.5 33.2068C35.1602 33.2068 20.293 48.0741 20.293 66.4138C20.293 84.7535 35.1602 99.6208 53.5 99.6208Z"></path>
<path fill="#FFF0E6" d="M53.4999 92.2413C67.7641 92.2413 79.3274 80.6779 79.3274 66.4138C79.3274 52.1496 67.7641 40.5862 53.4999 40.5862C39.2357 40.5862 27.6724 52.1496 27.6724 66.4138C27.6724 80.6779 39.2357 92.2413 53.4999 92.2413Z"></path>
<path fill="#FFE2C7" d="M53.5002 79.3275C60.6323 79.3275 66.414 73.5458 66.414 66.4138C66.414 59.2817 60.6323 53.5 53.5002 53.5C46.3681 53.5 40.5864 59.2817 40.5864 66.4138C40.5864 73.5458 46.3681 79.3275 53.5002 79.3275Z"></path>
<path fill="#5B5D6E" d="M53.4999 101.465C34.1724 101.465 18.4482 85.741 18.4482 66.4138C18.4482 47.0865 34.1726 31.3621 53.4999 31.3621C72.8272 31.3621 88.5516 47.0865 88.5516 66.4138C88.5516 85.741 72.8274 101.465 53.4999 101.465ZM53.4999 35.0517C36.2065 35.0517 22.1379 49.1203 22.1379 66.4138C22.1379 83.7072 36.2065 97.7758 53.4999 97.7758C70.7934 97.7758 84.862 83.7072 84.862 66.4138C84.862 49.1203 70.7934 35.0517 53.4999 35.0517Z"></path>
<path fill="#5B5D6E" d="M53.5002 70.1034C55.5379 70.1034 57.1898 68.4515 57.1898 66.4138C57.1898 64.376 55.5379 62.7241 53.5002 62.7241C51.4624 62.7241 49.8105 64.376 49.8105 66.4138C49.8105 68.4515 51.4624 70.1034 53.5002 70.1034Z"></path>
<path fill="#FFDCB9" d="M53.5001 94.0862C38.2415 94.0862 25.8276 81.6734 25.8276 66.4138C25.8276 51.1542 38.2415 38.7413 53.5001 38.7413C68.7587 38.7413 81.1726 51.1542 81.1726 66.4138C81.1726 81.6734 68.7587 94.0862 53.5001 94.0862ZM53.5001 42.4309C40.2754 42.4309 29.5173 53.1899 29.5173 66.4138C29.5173 79.6377 40.2754 90.3966 53.5001 90.3966C66.7248 90.3966 77.4829 79.6377 77.4829 66.4138C77.4829 53.1899 66.7248 42.4309 53.5001 42.4309Z"></path>
<path fill="#E1BE91" d="M33.2069 64.5691H29.5173C28.4985 64.5691 27.6724 65.3952 27.6724 66.414C27.6724 67.4328 28.4985 68.2589 29.5173 68.2589H33.2069C34.2257 68.2589 35.0518 67.4338 35.0518 66.414C35.0516 65.3941 34.2257 64.5691 33.2069 64.5691Z"></path>
<path fill="#E1BE91" d="M77.4828 64.5691H73.7932C72.7744 64.5691 71.9482 65.3952 71.9482 66.414C71.9482 67.4328 72.7744 68.2589 73.7932 68.2589H77.4828C78.5016 68.2589 79.3277 67.4338 79.3277 66.414C79.3275 65.3941 78.5016 64.5691 77.4828 64.5691Z"></path>
<path fill="#E1BE91" d="M55.3446 46.1208V42.4311C55.3446 41.4123 54.5185 40.5862 53.4997 40.5862C52.4809 40.5862 51.6548 41.4123 51.6548 42.4311V46.1208C51.6548 47.1396 52.4799 47.9657 53.4997 47.9657C54.5195 47.9657 55.3446 47.1396 55.3446 46.1208Z"></path>
<path fill="#E1BE91" d="M55.3446 90.3966V86.707C55.3446 85.6882 54.5185 84.8621 53.4997 84.8621C52.4809 84.8621 51.6548 85.6882 51.6548 86.707V90.3966C51.6548 91.4154 52.4799 92.2415 53.4997 92.2415C54.5195 92.2415 55.3446 91.4154 55.3446 90.3966Z"></path>
<path fill="#959CB3" d="M55.3449 20.293H51.6553V25.8275H55.3449V20.293Z"></path>
<path fill="#FFC36E" d="M55.3451 22.1379H51.6555C50.6367 22.1379 49.8105 21.3118 49.8105 20.293V18.4481C49.8105 17.4293 50.6367 16.6032 51.6555 16.6032H55.3451C56.3639 16.6032 57.19 17.4293 57.19 18.4481V20.293C57.1898 21.3118 56.3639 22.1379 55.3451 22.1379Z"></path>
<circle fill="#E1BE91" r="2.5" cy="47.5" cx="64.5"></circle>
<circle fill="#E1BE91" r="2.5" cy="55.5" cx="73.5"></circle>
<circle fill="#E1BE91" r="2.5" cy="76.5" cx="73.5"></circle>
<circle fill="#E1BE91" r="2.5" cy="85.5" cx="64.5"></circle>
<circle fill="#E1BE91" r="2.5" cy="85.5" cx="41.5"></circle>
<circle fill="#E1BE91" r="2.5" cy="76.5" cx="33.5"></circle>
<circle fill="#E1BE91" r="2.5" cy="55.5" cx="33.5"></circle>
<circle fill="#E1BE91" r="2.5" cy="47.5" cx="41.5"></circle>
</g>
<defs>
<clipPath id="clip0_408_185">
<rect fill="white" height="107" width="107"></rect>
</clipPath>
</defs>
</svg>
