<svg width="280" height="280" viewBox="0 0 280 280" fill="none" xmlns="http://www.w3.org/2000/svg">
<g clip-path="url(#clip0_408_185)">
<path d="M195.579 64.3264L195.579 64.3263L190.217 56.2843C190.217 56.284 190.216 56.2837 190.216 56.2834C187.097 51.5993 185.446 46.1576 185.442 40.5371C185.427 22.3957 170.672 7.65508 152.546 7.65508H127.455C109.33 7.65508 94.5737 22.3957 94.5591 40.5235C94.5545 46.159 92.9033 51.6009 89.7839 56.2848L84.4236 64.3242C84.4234 64.3245 84.4232 64.3249 84.4229 64.3252C83.5551 65.6212 81.8019 65.972 80.4988 65.1104C79.2004 64.2419 78.8518 62.4859 79.7157 61.1904L79.7158 61.1903L85.0784 53.1474L85.079 53.1466C87.5741 49.4007 88.8975 45.0318 88.9029 40.5324L88.9029 40.5318C88.9216 19.2795 106.218 2 127.455 2H152.545C173.783 2 191.078 19.2799 191.096 40.518V40.5187C191.102 45.0316 192.425 49.4006 194.92 53.1472L194.921 53.1479L200.283 61.1908L200.283 61.1909C201.148 62.4871 200.799 64.2435 199.499 65.1116C199.015 65.4334 198.471 65.5861 197.936 65.5861C197.016 65.5861 196.123 65.1429 195.579 64.3264Z" fill="#AFB9D2" stroke="black" stroke-width="4"/>
<path d="M137.172 55.1032H142.827V84.8963H137.172V55.1032Z" fill="#AFB9D2" stroke="black" stroke-width="4"/>
<path d="M68.7368 58.0912C67.9571 56.7382 68.4204 55.0091 69.7723 54.2266C71.1306 53.4445 72.8496 53.9041 73.6366 55.2633C73.6367 55.2635 73.6369 55.2638 73.6371 55.2641L98.6899 98.6617L93.7907 101.49L68.737 58.0915C68.737 58.0914 68.7369 58.0913 68.7368 58.0912Z" fill="#AFB9D2" stroke="black" stroke-width="4"/>
<path d="M91.1135 83.5438L100.051 99.0236L93.4217 102.851L84.4842 87.3713L91.1135 83.5438Z" fill="#959CB3" stroke="black" stroke-width="2"/>
<path d="M55.2101 106.247L55.21 106.247C53.8578 107.028 52.1286 106.564 51.3481 105.212L51.348 105.212C43.9017 92.3145 48.3208 75.8227 61.2177 68.3764L86.3023 53.8935C99.1996 46.4472 115.691 50.8663 123.138 63.7632L123.138 63.7633C123.919 65.1154 123.455 66.8448 122.103 67.6259C122.103 67.6259 122.103 67.6259 122.103 67.626L55.2101 106.247Z" fill="#FFD782" stroke="black" stroke-width="4"/>
<path d="M76.4868 90.4402L74.9986 87.917C69.5139 78.6198 71.46 67.1428 79 60L61.7195 69.7639C50.5125 76.0962 46.6726 90.1207 53.1434 101.089C54.2219 102.917 56.6104 103.543 58.4777 102.487L77.6605 91.6486C77.1986 91.3369 76.7863 90.9476 76.4868 90.4402Z" fill="#FFC36E"/>
<path d="M210.728 53.3607C208.891 52.3023 206.561 52.9257 205.497 54.7625L210.728 53.3607ZM210.728 53.3607C212.557 54.4193 213.185 56.7595 212.129 58.591L186.575 102.856L179.944 99.0279L205.497 54.7633L210.728 53.3607Z" fill="#AFB9D2" stroke="black" stroke-width="2"/>
<path d="M179.942 99.0161L188.627 83.9734L195.256 87.8009L186.571 102.844L179.942 99.0161Z" fill="#959CB3" stroke="black" stroke-width="2"/>
<path d="M224.79 106.247L224.79 106.247L157.898 67.626C157.898 67.6259 157.898 67.6259 157.898 67.6259C156.545 66.8448 156.082 65.1153 156.863 63.7633L156.863 63.7632C164.309 50.8663 180.801 46.4472 193.698 53.8935L218.783 68.3764L219.783 66.6443L218.783 68.3764C231.68 75.8227 236.099 92.3144 228.653 105.212C227.872 106.564 226.142 107.028 224.79 106.247Z" fill="#FFD782" stroke="black" stroke-width="4"/>
<path d="M204.427 91.0244L205.863 88.6185C211.159 79.7538 209.28 68.8106 202 62L218.685 71.3097C229.505 77.3475 233.213 90.7197 226.965 101.178C225.924 102.92 223.618 103.517 221.815 102.511L203.293 92.1765C203.74 91.8793 204.138 91.5082 204.427 91.0244Z" fill="#FFC36E"/>
<path d="M109.743 249.57L109.743 249.569C109.15 248.138 107.754 247.207 106.206 247.207H95.8747C94.5015 247.207 93.2341 247.943 92.5522 249.136C92.5522 249.136 92.5522 249.136 92.5522 249.136L78.7578 273.274L78.7577 273.274C77.8071 274.936 78.2339 277.048 79.7582 278.215L109.743 249.57ZM109.743 249.57C110.335 251.001 110.008 252.645 108.915 253.741L109.743 249.57ZM84.7867 277.879L84.7872 277.879L108.915 253.741L84.7867 277.879ZM84.7867 277.879C84.0452 278.622 83.0681 279 82.0787 279C81.2644 279 80.4473 278.742 79.7585 278.216L84.7867 277.879Z" fill="#5B5D6E" stroke="black" stroke-width="2"/>
<path d="M104.198 249H96.0621C94.6978 249 93.4391 249.704 92.7621 250.844L88 258.867C91.1278 260.791 94.399 262.504 97.8019 264L106.888 255.248C107.974 254.201 108.299 252.628 107.71 251.259C107.122 249.889 105.734 249 104.198 249Z" fill="#464655"/>
<path d="M170.269 249.57L170.27 249.569C170.862 248.138 172.257 247.207 173.806 247.207H184.137C185.511 247.207 186.778 247.943 187.46 249.136L201.254 273.274L201.254 273.274C202.205 274.936 201.778 277.048 200.254 278.215C199.565 278.742 198.748 279 197.933 279C196.944 279 195.967 278.622 195.225 277.879L195.225 277.879L171.097 253.741C171.097 253.741 171.097 253.741 171.097 253.741C170.004 252.646 169.677 251.001 170.269 249.57Z" fill="#5B5D6E" stroke="black" stroke-width="2"/>
<path d="M174.372 246H183.729C185.297 246 186.745 246.892 187.524 248.336L193 258.499C189.403 260.935 185.641 263.105 181.728 265L171.279 253.914C170.03 252.587 169.656 250.595 170.333 248.861C171.011 247.127 172.605 246 174.372 246Z" fill="#464655"/>
<path d="M144.84 57.931H135.185C132.519 57.931 130.357 55.772 130.357 53.1032C130.357 50.435 132.519 48.2754 135.185 48.2754H144.84C147.506 48.2754 149.668 50.4345 149.668 53.1032C149.667 55.772 147.506 57.931 144.84 57.931Z" fill="#646464"/>
<path d="M140 260.69C187.992 260.69 226.897 221.785 226.897 173.793C226.897 125.801 187.992 86.8962 140 86.8962C92.008 86.8962 53.103 125.801 53.103 173.793C53.103 221.785 92.008 260.69 140 260.69Z" fill="#707487"/>
<path d="M140 249C181.421 249 215 215.421 215 174C215 132.579 181.421 99 140 99C98.5786 99 65 132.579 65 174C65 215.421 98.5786 249 140 249Z" fill="#FFF0E6"/>
<path d="M140 207.586C158.663 207.586 173.793 192.456 173.793 173.793C173.793 155.13 158.663 140 140 140C121.337 140 106.207 155.13 106.207 173.793C106.207 192.456 121.337 207.586 140 207.586Z" fill="#FFE2C7"/>
<path d="M140 264.517C89.9756 264.517 49.2759 223.817 49.2759 173.793C49.2759 123.769 89.9761 83.069 140 83.069C190.024 83.069 230.724 123.769 230.724 173.793C230.724 223.817 190.024 264.517 140 264.517ZM140 90.724C94.1937 90.724 56.931 127.987 56.931 173.793C56.931 219.599 94.1937 256.862 140 256.862C185.806 256.862 223.069 219.599 223.069 173.793C223.069 127.987 185.806 90.724 140 90.724Z" fill="#5B5D6E" stroke="black" stroke-width="2"/>
<path d="M140 183.448C145.332 183.448 149.655 179.125 149.655 173.793C149.655 168.461 145.332 164.138 140 164.138C134.667 164.138 130.345 168.461 130.345 173.793C130.345 179.125 134.667 183.448 140 183.448Z" fill="#5B5D6E"/>
<path d="M140 246.207C100.071 246.207 67.5859 213.725 67.5859 173.793C67.5859 133.861 100.071 101.379 140 101.379C179.929 101.379 212.414 133.861 212.414 173.793C212.414 213.725 179.929 246.207 140 246.207ZM140 111.034C105.393 111.034 77.241 139.188 77.241 173.793C77.241 208.398 105.393 236.552 140 236.552C174.607 236.552 202.759 208.398 202.759 173.793C202.759 139.188 174.607 111.034 140 111.034Z" fill="#FFDCB9"/>
<path d="M86.897 168.966H77.2419C74.5759 168.966 72.4141 171.128 72.4141 173.794C72.4141 176.46 74.5759 178.621 77.2419 178.621H86.897C89.563 178.621 91.7248 176.462 91.7248 173.794C91.7242 171.125 89.563 168.966 86.897 168.966Z" fill="#E1BE91"/>
<path d="M202.759 168.966H193.104C190.438 168.966 188.276 171.128 188.276 173.794C188.276 176.46 190.438 178.621 193.104 178.621H202.759C205.425 178.621 207.587 176.462 207.587 173.794C207.586 171.125 205.425 168.966 202.759 168.966Z" fill="#E1BE91"/>
<path d="M144.828 120.69V111.035C144.828 108.369 142.666 106.207 140 106.207C137.334 106.207 135.172 108.369 135.172 111.035V120.69C135.172 123.356 137.331 125.518 140 125.518C142.669 125.518 144.828 123.356 144.828 120.69Z" fill="#E1BE91"/>
<path d="M144.828 236.552V226.897C144.828 224.231 142.666 222.069 140 222.069C137.334 222.069 135.172 224.231 135.172 226.897V236.552C135.172 239.218 137.331 241.38 140 241.38C142.669 241.38 144.828 239.218 144.828 236.552Z" fill="#E1BE91"/>
<path d="M141 53H139V68H141V53Z" fill="#959CB3"/>
<path d="M144.828 55.931H135.173C133.611 55.931 132.345 54.6646 132.345 53.1032V48.2754C132.345 46.7139 133.611 45.4476 135.173 45.4476H144.828C146.389 45.4476 147.655 46.7139 147.655 48.2754V53.1028C147.655 53.1029 147.655 53.1031 147.655 53.1032C147.655 54.6651 146.389 55.931 144.828 55.931Z" fill="#FFC36E" stroke="black" stroke-width="4"/>
<circle cx="168.785" cy="124.299" r="6.54206" fill="#E1BE91"/>
<circle cx="192.336" cy="145.234" r="6.54206" fill="#E1BE91"/>
<circle cx="192.336" cy="200.187" r="6.54206" fill="#E1BE91"/>
<circle cx="168.785" cy="223.738" r="6.54206" fill="#E1BE91"/>
<circle cx="108.598" cy="223.738" r="6.54206" fill="#E1BE91"/>
<circle cx="87.6636" cy="200.187" r="6.54206" fill="#E1BE91"/>
<circle cx="87.6636" cy="145.234" r="6.54206" fill="#E1BE91"/>
<circle cx="108.598" cy="124.299" r="6.54206" fill="#E1BE91"/>
</g>
<defs>
<clipPath id="clip0_408_185">
<rect width="280" height="280" fill="white"/>
</clipPath>
</defs>
</svg>
