<svg width="88" height="77" viewBox="0 0 88 77" fill="none" xmlns="http://www.w3.org/2000/svg">
<path d="M29.6099 68.5H34.6737H53.475H58.5388L57.4347 74.0207L57.4343 74.0227C57.2302 75.0658 56.2969 75.8438 55.1994 75.8438H32.9494C31.8519 75.8438 30.9185 75.0658 30.7145 74.0227L30.714 74.0207L29.6099 68.5Z" fill="#3FC1C9" stroke="#2A8186"/>
<path d="M58.539 7.84375L53.4752 7.84375L34.6739 7.84375L29.6101 7.84375L30.7142 2.32306L30.7146 2.321C30.9187 1.27791 31.852 0.5 32.9496 0.5L55.1996 0.5C56.2971 0.5 57.2304 1.27791 57.4345 2.321L57.4349 2.32306L58.539 7.84375Z" fill="#3FC1C9" stroke="#2A8186"/>
<mask id="path-3-inside-1_414_377" fill="white">
<path fill-rule="evenodd" clip-rule="evenodd" d="M23 10C17.4772 10 13 14.4772 13 20V56C13 61.5228 17.4772 66 23 66H65C70.5228 66 75 61.5229 75 56V46H77C78.6569 46 80 44.6569 80 43V32C80 30.3431 78.6569 29 77 29H75V20C75 14.4772 70.5228 10 65 10H23Z"/>
</mask>
<path fill-rule="evenodd" clip-rule="evenodd" d="M23 10C17.4772 10 13 14.4772 13 20V56C13 61.5228 17.4772 66 23 66H65C70.5228 66 75 61.5229 75 56V46H77C78.6569 46 80 44.6569 80 43V32C80 30.3431 78.6569 29 77 29H75V20C75 14.4772 70.5228 10 65 10H23Z" fill="#707487"/>
<path d="M75 46V44H73V46H75ZM75 29H73V31H75V29ZM15 20C15 15.5817 18.5817 12 23 12V8C16.3726 8 11 13.3726 11 20H15ZM15 56V20H11V56H15ZM23 64C18.5817 64 15 60.4183 15 56H11C11 62.6274 16.3726 68 23 68V64ZM65 64H23V68H65V64ZM73 56C73 60.4183 69.4183 64 65 64V68C71.6274 68 77 62.6274 77 56H73ZM73 46V56H77V46H73ZM77 44H75V48H77V44ZM78 43C78 43.5523 77.5523 44 77 44V48C79.7614 48 82 45.7614 82 43H78ZM78 32V43H82V32H78ZM77 31C77.5523 31 78 31.4477 78 32H82C82 29.2386 79.7614 27 77 27V31ZM75 31H77V27H75V31ZM73 20V29H77V20H73ZM65 12C69.4183 12 73 15.5817 73 20H77C77 13.3726 71.6274 8 65 8V12ZM23 12H65V8H23V12Z" fill="#404169" mask="url(#path-3-inside-1_414_377)"/>
<rect x="19" y="17" width="50" height="42" rx="5" fill="black"/>
</svg>
