<svg width="216px" height="216px" viewBox="0 0 108 108" fill="none" xmlns="http://www.w3.org/2000/svg">
<path d="M101.25 67.5C92.8125 67.5 86.0625 54 86.0625 45.5625C86.0625 28.6875 70.875 15.1875 54 15.1875C37.125 15.1875 21.9375 28.6875 21.9375 45.5625C21.9375 54 15.1875 67.5 6.75 67.5H0V89.4375H108V67.5H101.25Z" fill="#594640"/>
<path d="M54 72.5625C67.9797 72.5625 79.3125 61.2297 79.3125 47.25C79.3125 33.2703 67.9797 21.9375 54 21.9375C40.0203 21.9375 28.6875 33.2703 28.6875 47.25C28.6875 61.2297 40.0203 72.5625 54 72.5625Z" fill="#FED0AC"/>
<path d="M5.0625 89.4375H18.5625V92.8125H5.0625V89.4375Z" fill="#D3976E"/>
<path d="M89.4375 89.4375H102.938V92.8125H89.4375V89.4375Z" fill="#D3976E"/>
</svg>
