<svg width="150px" height="152px" viewBox="0 0 150 152" fill="none" xmlns="http://www.w3.org/2000/svg">
<path d="M37.4945 33.3373L46.4039 22.0358L136.182 92.8116L127.273 104.113C107.729 128.905 71.7876 133.159 46.9959 113.614C22.2042 94.0703 17.9503 58.1289 37.4945 33.3373Z" fill="#A45238" stroke="#552A13" stroke-width="3"/>
<circle cx="90.1147" cy="59" r="57.5" stroke="#552A13" stroke-width="3"/>
<circle cx="90.1147" cy="59" r="55.5" fill="#D2634E" stroke="#FED4AE" stroke-width="5"/>
<mask id="path-4-inside-1_417_92" fill="white">
<path d="M46.1147 59C46.1147 54.5817 49.6965 51 54.1147 51H126.115C130.533 51 134.115 54.5817 134.115 59V61C134.115 65.4183 130.533 69 126.115 69H54.1147C49.6965 69 46.1147 65.4183 46.1147 61V59Z"/>
</mask>
<path d="M46.1147 59C46.1147 54.5817 49.6965 51 54.1147 51H126.115C130.533 51 134.115 54.5817 134.115 59V61C134.115 65.4183 130.533 69 126.115 69H54.1147C49.6965 69 46.1147 65.4183 46.1147 61V59Z" fill="white"/>
<path d="M54.1147 54H126.115V48H54.1147V54ZM131.115 59V61H137.115V59H131.115ZM126.115 66H54.1147V72H126.115V66ZM49.1147 61V59H43.1147V61H49.1147ZM54.1147 66C51.3533 66 49.1147 63.7614 49.1147 61H43.1147C43.1147 67.0751 48.0396 72 54.1147 72V66ZM131.115 61C131.115 63.7614 128.876 66 126.115 66V72C132.19 72 137.115 67.0751 137.115 61H131.115ZM126.115 54C128.876 54 131.115 56.2386 131.115 59H137.115C137.115 52.9249 132.19 48 126.115 48V54ZM54.1147 48C48.0396 48 43.1147 52.9249 43.1147 59H49.1147C49.1147 56.2386 51.3533 54 54.1147 54V48Z" fill="#552A13" mask="url(#path-4-inside-1_417_92)"/>
<path d="M26.1145 70L32.1147 66" stroke="#552A13" stroke-width="2"/>
<path d="M25.5496 61L31.5498 57" stroke="#552A13" stroke-width="2"/>
<path d="M27.5494 80L34.1146 76" stroke="#552A13" stroke-width="2"/>
<path d="M31.5494 91L38.1146 87" stroke="#552A13" stroke-width="2" stroke-linecap="round"/>
<path d="M38.1147 103L45.1145 98" stroke="#552A13" stroke-width="2" stroke-linecap="round"/>
<path d="M47.1149 113L55.1147 107" stroke="#552A13" stroke-width="2" stroke-linecap="round"/>
<path d="M59.1149 120L67.1149 114" stroke="#552A13" stroke-width="2" stroke-linecap="round"/>
<path d="M74.1147 124L81.1147 118" stroke="#552A13" stroke-width="2" stroke-linecap="round"/>
<path d="M87.1147 125L94.1149 118" stroke="#552A13" stroke-width="2" stroke-linecap="round"/>
<path d="M102.115 122L107.115 116" stroke="#552A13" stroke-width="2" stroke-linecap="round"/>
</svg>
