<svg width="60" height="60" viewBox="0 0 60 60" fill="none" xmlns="http://www.w3.org/2000/svg">
<circle cx="30" cy="30" r="28" fill="#D2634E" stroke="black" stroke-width="4"/>
<mask id="path-2-inside-1_420_224" fill="white">
<path d="M11 30.5682C11 28.4218 12.74 26.6818 14.8864 26.6818H45.1136C47.26 26.6818 49 28.4218 49 30.5682V30.5682C49 32.7146 47.26 34.4546 45.1136 34.4546H14.8864C12.74 34.4546 11 32.7146 11 30.5682V30.5682Z"/>
</mask>
<path d="M11 30.5682C11 28.4218 12.74 26.6818 14.8864 26.6818H45.1136C47.26 26.6818 49 28.4218 49 30.5682V30.5682C49 32.7146 47.26 34.4546 45.1136 34.4546H14.8864C12.74 34.4546 11 32.7146 11 30.5682V30.5682Z" fill="white"/>
<path d="M14.8864 27.6818H45.1136V25.6818H14.8864V27.6818ZM45.1136 33.4546H14.8864V35.4546H45.1136V33.4546ZM14.8864 33.4546C13.2923 33.4546 12 32.1623 12 30.5682H10C10 33.2668 12.1877 35.4546 14.8864 35.4546V33.4546ZM48 30.5682C48 32.1623 46.7077 33.4546 45.1136 33.4546V35.4546C47.8123 35.4546 50 33.2669 50 30.5682H48ZM45.1136 27.6818C46.7077 27.6818 48 28.9741 48 30.5682H50C50 27.8695 47.8123 25.6818 45.1136 25.6818V27.6818ZM14.8864 25.6818C12.1877 25.6818 10 27.8695 10 30.5682H12C12 28.9741 13.2923 27.6818 14.8864 27.6818V25.6818Z" fill="#552A13" mask="url(#path-2-inside-1_420_224)"/>
</svg>
