<svg width="158" height="158" viewBox="0 0 158 158" fill="none" xmlns="http://www.w3.org/2000/svg">
<g filter="url(#filter0_d_420_166)">
<circle cx="79" cy="75" r="75" fill="#282947"/>
<circle cx="79" cy="75" r="73" stroke="black" stroke-width="4"/>
</g>
<path d="M75.4066 10.0909V21H73.4304V12.0138H73.3665L70.815 13.6438V11.8327L73.5263 10.0909H75.4066ZM78.1765 21V19.5724L81.9638 15.8597C82.326 15.494 82.6278 15.169 82.8693 14.8849C83.1108 14.6009 83.2919 14.3256 83.4126 14.0593C83.5334 13.793 83.5938 13.5089 83.5938 13.207C83.5938 12.8626 83.5156 12.5678 83.3594 12.3228C83.2031 12.0742 82.9883 11.8825 82.7148 11.7475C82.4414 11.6126 82.1307 11.5451 81.7827 11.5451C81.424 11.5451 81.1097 11.6197 80.8398 11.7688C80.57 11.9144 80.3604 12.1222 80.2113 12.392C80.0657 12.6619 79.9929 12.9833 79.9929 13.3562H78.1126C78.1126 12.6637 78.2706 12.0618 78.5866 11.5504C78.9027 11.0391 79.3377 10.6431 79.8917 10.3626C80.4492 10.082 81.0884 9.94176 81.8093 9.94176C82.5408 9.94176 83.1836 10.0785 83.7376 10.3519C84.2915 10.6254 84.7212 11 85.0266 11.4759C85.3356 11.9517 85.4901 12.495 85.4901 13.1058C85.4901 13.5142 85.4119 13.9155 85.2557 14.3097C85.0994 14.7038 84.8242 15.1406 84.43 15.62C84.0394 16.0994 83.4908 16.68 82.7841 17.3619L80.9038 19.2741V19.3487H85.6552V21H78.1765Z" fill="white"/>
<path d="M140.885 83.1491C140.118 83.1491 139.436 83.0178 138.839 82.755C138.246 82.4922 137.777 82.1264 137.433 81.6577C137.088 81.1889 136.906 80.6474 136.884 80.033H138.887C138.905 80.3278 139.002 80.5852 139.18 80.8054C139.358 81.022 139.594 81.1907 139.888 81.3114C140.183 81.4322 140.513 81.4925 140.879 81.4925C141.27 81.4925 141.616 81.4251 141.918 81.2901C142.22 81.1516 142.456 80.9599 142.626 80.7148C142.797 80.4698 142.88 80.1875 142.877 79.8679C142.88 79.5376 142.795 79.2464 142.621 78.9943C142.447 78.7422 142.195 78.5451 141.865 78.4031C141.538 78.261 141.144 78.19 140.682 78.19H139.718V76.6665H140.682C141.062 76.6665 141.394 76.6009 141.678 76.4695C141.966 76.3381 142.191 76.1534 142.355 75.9155C142.518 75.674 142.598 75.3952 142.594 75.0792C142.598 74.7702 142.529 74.5021 142.387 74.2749C142.248 74.044 142.051 73.8647 141.795 73.7369C141.543 73.609 141.247 73.5451 140.906 73.5451C140.572 73.5451 140.263 73.6055 139.979 73.7262C139.695 73.8469 139.466 74.0192 139.292 74.2429C139.118 74.4631 139.026 74.7259 139.015 75.0312H137.113C137.127 74.4205 137.303 73.8842 137.641 73.4226C137.982 72.9574 138.436 72.5952 139.004 72.3359C139.572 72.0732 140.21 71.9418 140.917 71.9418C141.645 71.9418 142.277 72.0785 142.813 72.3519C143.353 72.6218 143.77 72.9858 144.065 73.4439C144.359 73.902 144.507 74.408 144.507 74.962C144.51 75.5763 144.329 76.0913 143.963 76.5067C143.601 76.9222 143.125 77.1939 142.536 77.3217V77.407C143.303 77.5135 143.891 77.7976 144.299 78.2592C144.711 78.7173 144.915 79.2873 144.912 79.9691C144.912 80.5799 144.738 81.1268 144.39 81.6097C144.045 82.0891 143.569 82.4656 142.962 82.739C142.358 83.0124 141.666 83.1491 140.885 83.1491Z" fill="white"/>
<path d="M79.9645 141.149C79.4425 141.146 78.9329 141.055 78.4357 140.877C77.9386 140.696 77.4911 140.403 77.0934 139.999C76.6957 139.59 76.3796 139.049 76.1452 138.374C75.9109 137.696 75.7955 136.856 75.799 135.854C75.799 134.92 75.8984 134.088 76.0973 133.356C76.2962 132.625 76.582 132.007 76.9549 131.502C77.3278 130.995 77.777 130.608 78.3026 130.341C78.8317 130.075 79.4229 129.942 80.0763 129.942C80.7617 129.942 81.369 130.077 81.8981 130.347C82.4308 130.616 82.8604 130.986 83.1871 131.455C83.5138 131.92 83.7163 132.445 83.7944 133.031H81.8501C81.7507 132.612 81.5465 132.278 81.2376 132.03C80.9322 131.778 80.5451 131.652 80.0763 131.652C79.32 131.652 78.7376 131.98 78.3292 132.637C77.9244 133.294 77.7202 134.196 77.7166 135.343H77.7912C77.9652 135.031 78.1907 134.762 78.4677 134.539C78.7447 134.315 79.0572 134.143 79.4052 134.022C79.7567 133.898 80.1278 133.836 80.5185 133.836C81.1577 133.836 81.7312 133.988 82.239 134.294C82.7504 134.599 83.1552 135.02 83.4535 135.556C83.7518 136.089 83.8991 136.7 83.8956 137.388C83.8991 138.106 83.7358 138.75 83.4055 139.322C83.0753 139.89 82.6154 140.338 82.0259 140.664C81.4364 140.991 80.7493 141.153 79.9645 141.149ZM79.9538 139.551C80.3409 139.551 80.6871 139.457 80.9925 139.269C81.2979 139.081 81.5394 138.827 81.717 138.507C81.8945 138.187 81.9815 137.829 81.978 137.431C81.9815 137.04 81.8963 136.687 81.7223 136.371C81.5518 136.055 81.3157 135.805 81.0138 135.62C80.712 135.435 80.3675 135.343 79.9805 135.343C79.6928 135.343 79.4247 135.398 79.1761 135.508C78.9276 135.618 78.7109 135.771 78.5263 135.966C78.3416 136.158 78.196 136.382 78.0895 136.637C77.9865 136.89 77.9332 137.159 77.9297 137.447C77.9332 137.827 78.022 138.177 78.196 138.496C78.37 138.816 78.6097 139.072 78.9151 139.263C79.2205 139.455 79.5668 139.551 79.9538 139.551Z" fill="white"/>
<path d="M17.7567 68.9418C18.2788 68.9453 18.7866 69.0376 19.2802 69.2188C19.7773 69.3963 20.2248 69.6875 20.6225 70.0923C21.0202 70.4936 21.3363 71.0316 21.5707 71.7063C21.805 72.381 21.9222 73.2156 21.9222 74.2099C21.9258 75.1474 21.8263 75.9854 21.6239 76.7241C21.4251 77.4592 21.1392 78.0806 20.7663 78.5884C20.3935 79.0962 19.9442 79.4833 19.4187 79.7496C18.8931 80.016 18.3018 80.1491 17.6449 80.1491C16.956 80.1491 16.3452 80.0142 15.8125 79.7443C15.2834 79.4744 14.8555 79.1051 14.5288 78.6364C14.2021 78.1676 14.0014 77.6314 13.9268 77.0277H15.8711C15.9705 77.4609 16.1729 77.8054 16.4783 78.0611C16.7873 78.3132 17.1761 78.4393 17.6449 78.4393C18.4013 78.4393 18.9837 78.1108 19.392 77.4538C19.8004 76.7969 20.0046 75.8842 20.0046 74.7159H19.93C19.756 75.0284 19.5305 75.2983 19.2536 75.5256C18.9766 75.7493 18.6623 75.9215 18.3107 76.0423C17.9627 76.163 17.5934 76.2234 17.2028 76.2234C16.5636 76.2234 15.9883 76.0707 15.4769 75.7653C14.9691 75.4599 14.5661 75.0408 14.2678 74.5082C13.973 73.9755 13.8239 73.3665 13.8203 72.6811C13.8203 71.9709 13.9837 71.3335 14.3104 70.7688C14.6406 70.2006 15.1005 69.7532 15.69 69.4265C16.2795 69.0962 16.9684 68.9347 17.7567 68.9418ZM17.7621 70.5398C17.3786 70.5398 17.0323 70.6339 16.7234 70.8221C16.418 71.0067 16.1765 71.2589 15.9989 71.5785C15.8249 71.8945 15.7379 72.2479 15.7379 72.6385C15.7415 73.0256 15.8285 73.3771 15.9989 73.6932C16.1729 74.0092 16.4091 74.2596 16.7074 74.4442C17.0092 74.6289 17.3537 74.7212 17.7408 74.7212C18.0284 74.7212 18.2965 74.6662 18.5451 74.5561C18.7937 74.446 19.0103 74.2933 19.195 74.098C19.3832 73.8991 19.5288 73.6737 19.6317 73.4215C19.7383 73.1694 19.7898 72.9031 19.7862 72.6225C19.7862 72.2496 19.6974 71.9052 19.5199 71.5891C19.3459 71.2731 19.1062 71.0192 18.8008 70.8274C18.4989 70.6357 18.1527 70.5398 17.7621 70.5398Z" fill="white"/>
<ellipse cx="112.5" cy="129" rx="4.5" ry="4" fill="white"/>
<ellipse cx="112.5" cy="26.5" rx="4.5" ry="5.5" fill="white"/>
<circle cx="47" cy="129" r="4" fill="white"/>
<ellipse cx="130" cy="104.5" rx="4" ry="4.5" fill="white"/>
<ellipse cx="130" cy="51" rx="4" ry="5" fill="white"/>
<ellipse cx="25" cy="104.5" rx="5" ry="4.5" fill="white"/>
<circle cx="25" cy="51" r="5" fill="white"/>
<ellipse cx="47" cy="26.5" rx="4" ry="5.5" fill="white"/>
<defs>
<filter id="filter0_d_420_166" x="0" y="0" width="158" height="158" filterUnits="userSpaceOnUse" color-interpolation-filters="sRGB">
<feFlood flood-opacity="0" result="BackgroundImageFix"/>
<feColorMatrix in="SourceAlpha" type="matrix" values="0 0 0 0 0 0 0 0 0 0 0 0 0 0 0 0 0 0 127 0" result="hardAlpha"/>
<feOffset dy="4"/>
<feGaussianBlur stdDeviation="2"/>
<feComposite in2="hardAlpha" operator="out"/>
<feColorMatrix type="matrix" values="0 0 0 0 0 0 0 0 0 0 0 0 0 0 0 0 0 0 0.25 0"/>
<feBlend mode="normal" in2="BackgroundImageFix" result="effect1_dropShadow_420_166"/>
<feBlend mode="normal" in="SourceGraphic" in2="effect1_dropShadow_420_166" result="shape"/>
</filter>
</defs>
</svg>
