<svg width="60" height="60" viewBox="0 0 60 60" fill="none" xmlns="http://www.w3.org/2000/svg">
<circle cx="30" cy="30" r="28" fill="#D2634E" stroke="black" stroke-width="4"/>
<mask id="path-2-inside-1_420_223" fill="white">
<path fill-rule="evenodd" clip-rule="evenodd" d="M26.1136 46.1136C26.1136 48.26 27.8536 50 30 50C32.1464 50 33.8864 48.26 33.8864 46.1136V34.4545H45.1136C47.26 34.4545 49 32.7146 49 30.5682C49 28.4218 47.26 26.6818 45.1136 26.6818H33.8864V15.8864C33.8864 13.74 32.1464 12 30 12C27.8536 12 26.1136 13.74 26.1136 15.8864V26.6818H14.8864C12.74 26.6818 11 28.4218 11 30.5682C11 32.7146 12.74 34.4545 14.8864 34.4545H26.1136V46.1136Z"/>
</mask>
<path fill-rule="evenodd" clip-rule="evenodd" d="M26.1136 46.1136C26.1136 48.26 27.8536 50 30 50C32.1464 50 33.8864 48.26 33.8864 46.1136V34.4545H45.1136C47.26 34.4545 49 32.7146 49 30.5682C49 28.4218 47.26 26.6818 45.1136 26.6818H33.8864V15.8864C33.8864 13.74 32.1464 12 30 12C27.8536 12 26.1136 13.74 26.1136 15.8864V26.6818H14.8864C12.74 26.6818 11 28.4218 11 30.5682C11 32.7146 12.74 34.4545 14.8864 34.4545H26.1136V46.1136Z" fill="white"/>
<path d="M33.8864 34.4545V33.4545H32.8864V34.4545H33.8864ZM33.8864 26.6818H32.8864V27.6818H33.8864V26.6818ZM26.1136 26.6818V27.6818H27.1136V26.6818H26.1136ZM26.1136 34.4545H27.1136V33.4545H26.1136V34.4545ZM30 49C28.4059 49 27.1136 47.7077 27.1136 46.1136H25.1136C25.1136 48.8123 27.3013 51 30 51V49ZM32.8864 46.1136C32.8864 47.7077 31.5941 49 30 49V51C32.6987 51 34.8864 48.8123 34.8864 46.1136H32.8864ZM32.8864 34.4545V46.1136H34.8864V34.4545H32.8864ZM45.1136 33.4545H33.8864V35.4545H45.1136V33.4545ZM48 30.5682C48 32.1623 46.7077 33.4545 45.1136 33.4545V35.4545C47.8123 35.4545 50 33.2668 50 30.5682H48ZM45.1136 27.6818C46.7077 27.6818 48 28.9741 48 30.5682H50C50 27.8695 47.8123 25.6818 45.1136 25.6818V27.6818ZM33.8864 27.6818H45.1136V25.6818H33.8864V27.6818ZM32.8864 15.8864V26.6818H34.8864V15.8864H32.8864ZM30 13C31.5941 13 32.8864 14.2923 32.8864 15.8864H34.8864C34.8864 13.1877 32.6987 11 30 11V13ZM27.1136 15.8864C27.1136 14.2923 28.4059 13 30 13V11C27.3013 11 25.1136 13.1877 25.1136 15.8864H27.1136ZM27.1136 26.6818V15.8864H25.1136V26.6818H27.1136ZM14.8864 27.6818H26.1136V25.6818H14.8864V27.6818ZM12 30.5682C12 28.9741 13.2923 27.6818 14.8864 27.6818V25.6818C12.1877 25.6818 10 27.8695 10 30.5682H12ZM14.8864 33.4545C13.2923 33.4545 12 32.1623 12 30.5682H10C10 33.2668 12.1877 35.4545 14.8864 35.4545V33.4545ZM26.1136 33.4545H14.8864V35.4545H26.1136V33.4545ZM27.1136 46.1136V34.4545H25.1136V46.1136H27.1136Z" fill="#552A13" mask="url(#path-2-inside-1_420_223)"/>
</svg>
