<svg width="150px" height="152px" viewBox="0 0 150 152" fill="none" xmlns="http://www.w3.org/2000/svg">
<path d="M37.4945 33.3373L46.4039 22.0358L136.182 92.8116L127.273 104.113C107.729 128.905 71.7876 133.159 46.9959 113.614C22.2042 94.0703 17.9503 58.1289 37.4945 33.3373Z" fill="#A45238" stroke="#552A13" stroke-width="3"/>
<circle cx="90.1147" cy="59" r="57.5" stroke="#552A13" stroke-width="3"/>
<circle cx="90.1147" cy="59" r="55.5" fill="#D2634E" stroke="#FED4AE" stroke-width="5"/>
<path d="M26.1145 70L32.1147 66" stroke="#552A13" stroke-width="2"/>
<path d="M25.5496 61L31.5498 57" stroke="#552A13" stroke-width="2"/>
<path d="M27.5494 80L34.1146 76" stroke="#552A13" stroke-width="2"/>
<path d="M31.5494 91L38.1146 87" stroke="#552A13" stroke-width="2" stroke-linecap="round"/>
<path d="M38.1147 103L45.1145 98" stroke="#552A13" stroke-width="2" stroke-linecap="round"/>
<path d="M47.1149 113L55.1147 107" stroke="#552A13" stroke-width="2" stroke-linecap="round"/>
<path d="M59.1149 120L67.1149 114" stroke="#552A13" stroke-width="2" stroke-linecap="round"/>
<path d="M74.1147 124L81.1147 118" stroke="#552A13" stroke-width="2" stroke-linecap="round"/>
<path d="M87.1147 125L94.1149 118" stroke="#552A13" stroke-width="2" stroke-linecap="round"/>
<path d="M102.115 122L107.115 116" stroke="#552A13" stroke-width="2" stroke-linecap="round"/>
<mask id="path-14-inside-1_417_199" fill="white">
<path fill-rule="evenodd" clip-rule="evenodd" d="M80 97C80 101.418 83.5817 105 88 105H90C94.4183 105 98 101.418 98 97V69H125C129.418 69 133 65.4183 133 61V59C133 54.5817 129.418 51 125 51H98V25C98 20.5817 94.4183 17 90 17H88C83.5817 17 80 20.5817 80 25V51H53C48.5817 51 45 54.5817 45 59V61C45 65.4183 48.5817 69 53 69H80V97Z"/>
</mask>
<path fill-rule="evenodd" clip-rule="evenodd" d="M80 97C80 101.418 83.5817 105 88 105H90C94.4183 105 98 101.418 98 97V69H125C129.418 69 133 65.4183 133 61V59C133 54.5817 129.418 51 125 51H98V25C98 20.5817 94.4183 17 90 17H88C83.5817 17 80 20.5817 80 25V51H53C48.5817 51 45 54.5817 45 59V61C45 65.4183 48.5817 69 53 69H80V97Z" fill="white"/>
<path d="M98 69V66H95V69H98ZM98 51H95V54H98V51ZM80 51V54H83V51H80ZM80 69H83V66H80V69ZM88 102C85.2386 102 83 99.7614 83 97H77C77 103.075 81.9249 108 88 108V102ZM90 102H88V108H90V102ZM95 97C95 99.7614 92.7614 102 90 102V108C96.0751 108 101 103.075 101 97H95ZM95 69V97H101V69H95ZM125 66H98V72H125V66ZM130 61C130 63.7614 127.761 66 125 66V72C131.075 72 136 67.0751 136 61H130ZM130 59V61H136V59H130ZM125 54C127.761 54 130 56.2386 130 59H136C136 52.9249 131.075 48 125 48V54ZM98 54H125V48H98V54ZM95 25V51H101V25H95ZM90 20C92.7614 20 95 22.2386 95 25H101C101 18.9249 96.0751 14 90 14V20ZM88 20H90V14H88V20ZM83 25C83 22.2386 85.2386 20 88 20V14C81.9249 14 77 18.9249 77 25H83ZM83 51V25H77V51H83ZM53 54H80V48H53V54ZM48 59C48 56.2386 50.2386 54 53 54V48C46.9249 48 42 52.9249 42 59H48ZM48 61V59H42V61H48ZM53 66C50.2386 66 48 63.7614 48 61H42C42 67.0751 46.9249 72 53 72V66ZM80 66H53V72H80V66ZM83 97V69H77V97H83Z" fill="#552A13" mask="url(#path-14-inside-1_417_199)"/>
</svg>
