<svg width="155" height="185" viewBox="0 0 155 185" fill="none" xmlns="http://www.w3.org/2000/svg">
<circle cx="77.43" cy="21.43" r="11.0076" transform="rotate(-2.0531 77.43 21.43)" stroke="black" stroke-width="2"/>
<circle cx="77.5" cy="21.5" r="15.5" stroke="#FECD57" stroke-width="7"/>
<circle cx="77.5092" cy="21.4905" r="18.7781" transform="rotate(-2.0531 77.5092 21.4905)" stroke="black" stroke-width="4"/>
<circle cx="78" cy="107" r="75" fill="#FECD57"/>
<path d="M78.499 169.646C75.6395 169.646 73.3218 171.96 73.3218 174.819C73.3218 177.679 75.639 180 78.499 180C81.359 180 83.6767 177.679 83.6767 174.819C83.6762 171.96 81.3585 169.646 78.499 169.646Z" fill="#F5BA45"/>
<path d="M42.2505 44.7173C39.7736 46.1437 38.924 49.3145 40.3542 51.7871C41.784 54.2675 44.9508 55.1172 47.4278 53.6835C49.9047 52.2498 50.7543 49.0868 49.3241 46.6059C47.8943 44.1332 44.727 43.2836 42.2505 44.7173Z" fill="#F5BA45"/>
<path d="M109.569 161.316C107.096 162.743 106.246 165.914 107.672 168.386C109.099 170.867 112.269 171.716 114.742 170.283C117.222 168.856 118.072 165.685 116.638 163.213C115.212 160.732 112.041 159.89 109.569 161.316Z" fill="#F5BA45"/>
<path d="M22.7868 69.356C20.3099 67.9223 17.143 68.7719 15.7133 71.2523C14.2835 73.7255 15.1331 76.8958 17.6096 78.3222C20.0861 79.7559 23.2534 78.9062 24.6831 76.4331C26.1134 73.9532 25.2638 70.7896 22.7868 69.356Z" fill="#F5BA45"/>
<path d="M139.386 136.679C136.906 135.245 133.743 136.095 132.31 138.575C130.883 141.048 131.733 144.219 134.206 145.645C136.685 147.079 139.849 146.229 141.282 143.749C142.716 141.275 141.866 138.105 139.386 136.679Z" fill="#F5BA45"/>
<path d="M11.1811 102.323C8.32111 102.323 6 104.637 6 107.504C6 110.356 8.32111 112.677 11.1811 112.677C14.0406 112.677 16.3583 110.356 16.3583 107.504C16.3574 104.637 14.0406 102.323 11.1811 102.323Z" fill="#F5BA45"/>
<path d="M145.811 102.323C142.959 102.323 140.638 104.637 140.638 107.504C140.638 110.356 142.959 112.677 145.811 112.677C148.678 112.677 151 110.356 151 107.504C151 104.637 148.679 102.323 145.811 102.323Z" fill="#F5BA45"/>
<path d="M17.6099 136.679C15.133 138.105 14.2834 141.275 15.7136 143.749C17.1434 146.229 20.3102 147.079 22.7871 145.645C25.2641 144.219 26.1137 141.048 24.6835 138.575C23.2537 136.095 20.0869 135.245 17.6099 136.679Z" fill="#F5BA45"/>
<path d="M139.386 78.3222C141.866 76.8958 142.716 73.7255 141.282 71.2523C139.849 68.7719 136.685 67.9223 134.206 69.356C131.733 70.7896 130.883 73.9532 132.31 76.4331C133.744 78.9062 136.906 79.7559 139.386 78.3222Z" fill="#F5BA45"/>
<path d="M47.4275 161.316C44.9505 159.89 41.7837 160.732 40.3539 163.213C38.9242 165.686 39.7738 168.857 42.2502 170.283C44.7267 171.716 47.894 170.867 49.3238 168.394C50.754 165.914 49.9044 162.742 47.4275 161.316Z" fill="#F5BA45"/>
<path d="M109.569 53.6835C112.041 55.1171 115.212 54.2675 116.638 51.7871C118.072 49.3144 117.222 46.1432 114.742 44.7172C112.269 43.2836 109.099 44.1332 107.672 46.6063C106.246 49.0867 107.096 52.2498 109.569 53.6835Z" fill="#F5BA45"/>
<circle cx="77.5" cy="107.5" r="75.5" stroke="black" stroke-width="4"/>
<mask id="path-17-inside-1_420_226" fill="white">
<path fill-rule="evenodd" clip-rule="evenodd" d="M74.0938 20C72.3851 20 71 21.3851 71 23.0938C71 24.771 72.3347 26.1365 74 26.1861V31.1875H80.1875V26.1875H80.2812C81.9899 26.1875 83.375 24.8024 83.375 23.0938C83.375 21.3851 81.9899 20 80.2812 20H74.0938Z"/>
</mask>
<path fill-rule="evenodd" clip-rule="evenodd" d="M74.0938 20C72.3851 20 71 21.3851 71 23.0938C71 24.771 72.3347 26.1365 74 26.1861V31.1875H80.1875V26.1875H80.2812C81.9899 26.1875 83.375 24.8024 83.375 23.0938C83.375 21.3851 81.9899 20 80.2812 20H74.0938Z" fill="#FECD57"/>
<path d="M74 26.1861H75V25.2154L74.0297 25.1865L74 26.1861ZM74 31.1875H73V32.1875H74V31.1875ZM80.1875 31.1875V32.1875H81.1875V31.1875H80.1875ZM80.1875 26.1875V25.1875H79.1875V26.1875H80.1875ZM72 23.0938C72 21.9374 72.9374 21 74.0938 21V19C71.8328 19 70 20.8328 70 23.0938H72ZM74.0297 25.1865C72.9033 25.153 72 24.2287 72 23.0938H70C70 25.3133 71.7661 27.1201 73.9703 27.1857L74.0297 25.1865ZM75 31.1875V26.1861H73V31.1875H75ZM80.1875 30.1875H74V32.1875H80.1875V30.1875ZM79.1875 26.1875V31.1875H81.1875V26.1875H79.1875ZM80.2812 25.1875H80.1875V27.1875H80.2812V25.1875ZM82.375 23.0938C82.375 24.2501 81.4376 25.1875 80.2812 25.1875V27.1875C82.5422 27.1875 84.375 25.3547 84.375 23.0938H82.375ZM80.2812 21C81.4376 21 82.375 21.9374 82.375 23.0938H84.375C84.375 20.8328 82.5422 19 80.2812 19V21ZM74.0938 21H80.2812V19H74.0938V21Z" fill="black" mask="url(#path-17-inside-1_420_226)"/>
<path d="M78.1772 35C75.3177 35 73 37.3212 73 40.1813C73 43.0409 75.3172 45.362 78.1772 45.362C81.0372 45.362 83.3549 43.0409 83.3549 40.1813C83.3544 37.3212 81.0367 35 78.1772 35Z" fill="#F5BA45"/>
</svg>
