<svg width="155px" height="179px" viewBox="0 0 155 179" fill="none" xmlns="http://www.w3.org/2000/svg">
<circle cx="78" cy="101" r="75" fill="#FECD57"/>
<path d="M78.499 29C75.6395 29 73.3218 31.3212 73.3218 34.1813C73.3218 37.0409 75.639 39.362 78.499 39.362C81.359 39.362 83.6767 37.0409 83.6767 34.1813C83.6762 31.3212 81.3585 29 78.499 29Z" fill="#F5BA45"/>
<path d="M78.499 163.646C75.6395 163.646 73.3218 165.96 73.3218 168.819C73.3218 171.679 75.639 174 78.499 174C81.359 174 83.6767 171.679 83.6767 168.819C83.6762 165.96 81.3585 163.646 78.499 163.646Z" fill="#F5BA45"/>
<path d="M42.2505 38.7173C39.7736 40.1437 38.924 43.3145 40.3542 45.7871C41.784 48.2675 44.9508 49.1172 47.4278 47.6835C49.9047 46.2498 50.7543 43.0868 49.3241 40.6059C47.8943 38.1332 44.727 37.2836 42.2505 38.7173Z" fill="#F5BA45"/>
<path d="M109.569 155.316C107.096 156.743 106.246 159.914 107.672 162.386C109.099 164.867 112.269 165.716 114.742 164.283C117.222 162.856 118.072 159.685 116.638 157.213C115.212 154.732 112.041 153.89 109.569 155.316Z" fill="#F5BA45"/>
<path d="M22.7868 63.356C20.3099 61.9223 17.143 62.7719 15.7133 65.2523C14.2835 67.7255 15.1331 70.8958 17.6096 72.3222C20.0861 73.7559 23.2534 72.9062 24.6831 70.4331C26.1134 67.9532 25.2638 64.7896 22.7868 63.356Z" fill="#F5BA45"/>
<path d="M139.386 130.679C136.906 129.245 133.743 130.095 132.31 132.575C130.883 135.048 131.733 138.219 134.206 139.645C136.685 141.079 139.849 140.229 141.282 137.749C142.716 135.275 141.866 132.105 139.386 130.679Z" fill="#F5BA45"/>
<path d="M11.1811 96.3229C8.32111 96.3229 6 98.6368 6 101.504C6 104.356 8.32111 106.677 11.1811 106.677C14.0406 106.677 16.3583 104.356 16.3583 101.504C16.3574 98.6368 14.0406 96.3229 11.1811 96.3229Z" fill="#F5BA45"/>
<path d="M145.811 96.3229C142.959 96.3229 140.638 98.6368 140.638 101.504C140.638 104.356 142.959 106.677 145.811 106.677C148.678 106.677 151 104.356 151 101.504C151 98.6368 148.679 96.3229 145.811 96.3229Z" fill="#F5BA45"/>
<path d="M17.6099 130.679C15.133 132.105 14.2834 135.275 15.7136 137.749C17.1434 140.229 20.3102 141.079 22.7871 139.645C25.2641 138.219 26.1137 135.048 24.6835 132.575C23.2537 130.095 20.0869 129.245 17.6099 130.679Z" fill="#F5BA45"/>
<path d="M139.386 72.3222C141.866 70.8958 142.716 67.7255 141.282 65.2523C139.849 62.7719 136.685 61.9223 134.206 63.356C131.733 64.7896 130.883 67.9532 132.31 70.4331C133.744 72.9062 136.906 73.7559 139.386 72.3222Z" fill="#F5BA45"/>
<path d="M47.4275 155.316C44.9505 153.89 41.7837 154.732 40.3539 157.213C38.9242 159.686 39.7738 162.857 42.2502 164.283C44.7267 165.716 47.894 164.867 49.3238 162.394C50.754 159.914 49.9044 156.742 47.4275 155.316Z" fill="#F5BA45"/>
<path d="M109.569 47.6835C112.041 49.1171 115.212 48.2675 116.638 45.7871C118.072 43.3144 117.222 40.1432 114.742 38.7172C112.269 37.2836 109.099 38.1332 107.672 40.6063C106.246 43.0867 107.096 46.2498 109.569 47.6835Z" fill="#F5BA45"/>
<circle cx="77.5" cy="15.5" r="12" stroke="#FECD57" stroke-width="7"/>
<circle cx="77.5" cy="101.5" r="72.5" stroke="#F5BA45" stroke-width="10"/>
<path fill-rule="evenodd" clip-rule="evenodd" d="M74.0938 13C72.3851 13 71 14.3851 71 16.0938C71 17.771 72.3347 19.1365 74 19.1861V24.1875H80.1875V19.1875H80.2812C81.9899 19.1875 83.375 17.8024 83.375 16.0938C83.375 14.3851 81.9899 13 80.2812 13H74.0938Z" fill="#FECD57"/>
</svg>
