<svg width="163" height="33" viewBox="0 0 163 33" fill="none" xmlns="http://www.w3.org/2000/svg">
<path d="M24 7H158C160.209 7 162 8.79086 162 11V22C162 24.2091 160.209 26 158 26H24V7Z" fill="#F5BA45" stroke="#E06A09" stroke-width="2"/>
<circle cx="16.5" cy="16.5" r="15.5" fill="url(#paint0_linear_420_246)" stroke="#F5BA45" stroke-width="2"/>
<line x1="16.5" y1="16.5" x2="16.5" y2="5.5" stroke="white" stroke-linecap="round"/>
<line x1="25.5" y1="16.5" x2="16.5" y2="16.5" stroke="white" stroke-linecap="round"/>
<path d="M36.1109 19.825C38.8509 19.975 40.7059 20.05 41.6759 20.05C41.9059 20.05 42.0859 19.985 42.2159 19.855C42.3559 19.715 42.4259 19.53 42.4259 19.3V17.95H38.9759C37.9259 17.95 37.1609 17.715 36.6809 17.245C36.2109 16.765 35.9759 16 35.9759 14.95V14.5C35.9759 13.45 36.2109 12.69 36.6809 12.22C37.1609 11.74 37.9259 11.5 38.9759 11.5H44.2409V13.6H39.5759C38.9759 13.6 38.6759 13.9 38.6759 14.5V14.8C38.6759 15.4 38.9759 15.7 39.5759 15.7H42.2759C43.2559 15.7 43.9759 15.93 44.4359 16.39C44.8959 16.85 45.1259 17.57 45.1259 18.55V19.3C45.1259 20.28 44.8959 21 44.4359 21.46C43.9759 21.92 43.2559 22.15 42.2759 22.15C41.7659 22.15 41.2259 22.14 40.6559 22.12L39.2759 22.06C38.2559 22.01 37.2009 21.94 36.1109 21.85V19.825ZM53.3747 21.85C51.5047 22.05 49.8547 22.15 48.4247 22.15C47.7447 22.15 47.1997 21.945 46.7897 21.535C46.3797 21.125 46.1747 20.58 46.1747 19.9V16.45C46.1747 15.7 46.3847 15.115 46.8047 14.695C47.2347 14.265 47.8247 14.05 48.5747 14.05H53.3747V16.075H49.3997C48.9997 16.075 48.7997 16.275 48.7997 16.675V19.6C48.7997 19.75 48.8497 19.875 48.9497 19.975C49.0497 20.075 49.1747 20.125 49.3247 20.125C50.2247 20.125 51.5747 20.05 53.3747 19.9V21.85ZM62.6718 19.75C62.6718 20.5 62.4568 21.09 62.0268 21.52C61.6068 21.94 61.0218 22.15 60.2718 22.15H56.8218C56.0718 22.15 55.4818 21.94 55.0518 21.52C54.6318 21.09 54.4218 20.5 54.4218 19.75V16.3C54.4218 15.55 54.6318 14.965 55.0518 14.545C55.4818 14.115 56.0718 13.9 56.8218 13.9H60.2718C61.0218 13.9 61.6068 14.115 62.0268 14.545C62.4568 14.965 62.6718 15.55 62.6718 16.3V19.75ZM60.0468 16.525C60.0468 16.125 59.8468 15.925 59.4468 15.925H57.6468C57.2468 15.925 57.0468 16.125 57.0468 16.525V19.525C57.0468 19.925 57.2468 20.125 57.6468 20.125H59.4468C59.8468 20.125 60.0468 19.925 60.0468 19.525V16.525ZM68.595 16.225C67.965 16.225 67.315 16.375 66.645 16.675V22H64.02V14.05H66.345L66.495 15.025C67.355 14.275 68.255 13.9 69.195 13.9H69.87V16.225H68.595ZM73.7015 15.775C73.3015 15.775 73.1015 15.975 73.1015 16.375V17.2H75.6515V16.375C75.6515 15.975 75.4515 15.775 75.0515 15.775H73.7015ZM77.9765 21.85C76.0465 22.05 74.2965 22.15 72.7265 22.15C72.0465 22.15 71.5015 21.945 71.0915 21.535C70.6815 21.125 70.4765 20.58 70.4765 19.9V16.3C70.4765 15.55 70.6865 14.965 71.1065 14.545C71.5365 14.115 72.1265 13.9 72.8765 13.9H75.8765C76.6265 13.9 77.2115 14.115 77.6315 14.545C78.0615 14.965 78.2765 15.55 78.2765 16.3V19.075H73.1015V19.675C73.1015 19.825 73.1515 19.95 73.2515 20.05C73.3515 20.15 73.4765 20.2 73.6265 20.2C74.6165 20.2 76.0665 20.125 77.9765 19.975V21.85ZM79.3206 19.75H82.0206V22H79.3206V19.75ZM79.3206 14.05H82.0206V16.3H79.3206V14.05Z" fill="#911922"/>
<defs>
<linearGradient id="paint0_linear_420_246" x1="16.5" y1="0" x2="16.5" y2="33" gradientUnits="userSpaceOnUse">
<stop stop-color="#F49701"/>
<stop offset="1" stop-color="#D95B0B"/>
</linearGradient>
</defs>
</svg>
