<svg width="178" height="177" viewBox="0 0 178 177" fill="none" xmlns="http://www.w3.org/2000/svg">
<path d="M30 2H148C163.464 2 176 14.536 176 30V147C176 162.464 163.464 175 148 175H30C14.536 175 2 162.464 2 147V30C2 14.536 14.536 2 30 2Z" fill="#7DAEBD" stroke="black" stroke-width="4"/>
<circle cx="89" cy="90" r="74.5" fill="#FFFCD1" stroke="black"/>
<path d="M84.4066 23.0909V34H82.4304V25.0138H82.3665L79.815 26.6438V24.8327L82.5263 23.0909H84.4066ZM87.1765 34V32.5724L90.9638 28.8597C91.326 28.494 91.6278 28.169 91.8693 27.8849C92.1108 27.6009 92.2919 27.3256 92.4126 27.0593C92.5334 26.793 92.5938 26.5089 92.5938 26.207C92.5938 25.8626 92.5156 25.5678 92.3594 25.3228C92.2031 25.0742 91.9883 24.8825 91.7148 24.7475C91.4414 24.6126 91.1307 24.5451 90.7827 24.5451C90.424 24.5451 90.1097 24.6197 89.8398 24.7688C89.57 24.9144 89.3604 25.1222 89.2113 25.392C89.0657 25.6619 88.9929 25.9833 88.9929 26.3562H87.1126C87.1126 25.6637 87.2706 25.0618 87.5866 24.5504C87.9027 24.0391 88.3377 23.6431 88.8917 23.3626C89.4492 23.082 90.0884 22.9418 90.8093 22.9418C91.5408 22.9418 92.1836 23.0785 92.7376 23.3519C93.2915 23.6254 93.7212 24 94.0266 24.4759C94.3356 24.9517 94.4901 25.495 94.4901 26.1058C94.4901 26.5142 94.4119 26.9155 94.2557 27.3097C94.0994 27.7038 93.8242 28.1406 93.43 28.62C93.0394 29.0994 92.4908 29.68 91.7841 30.3619L89.9038 32.2741V32.3487H94.6552V34H87.1765Z" fill="black"/>
<path d="M87.9645 158.149C87.4425 158.146 86.9329 158.055 86.4357 157.877C85.9386 157.696 85.4911 157.403 85.0934 156.999C84.6957 156.59 84.3796 156.049 84.1452 155.374C83.9109 154.696 83.7955 153.856 83.799 152.854C83.799 151.92 83.8984 151.088 84.0973 150.356C84.2962 149.625 84.582 149.007 84.9549 148.502C85.3278 147.995 85.777 147.608 86.3026 147.341C86.8317 147.075 87.4229 146.942 88.0763 146.942C88.7617 146.942 89.369 147.077 89.8981 147.347C90.4308 147.616 90.8604 147.986 91.1871 148.455C91.5138 148.92 91.7163 149.445 91.7944 150.031H89.8501C89.7507 149.612 89.5465 149.278 89.2376 149.03C88.9322 148.778 88.5451 148.652 88.0763 148.652C87.32 148.652 86.7376 148.98 86.3292 149.637C85.9244 150.294 85.7202 151.196 85.7166 152.343H85.7912C85.9652 152.031 86.1907 151.762 86.4677 151.539C86.7447 151.315 87.0572 151.143 87.4052 151.022C87.7567 150.898 88.1278 150.836 88.5185 150.836C89.1577 150.836 89.7312 150.988 90.239 151.294C90.7504 151.599 91.1552 152.02 91.4535 152.556C91.7518 153.089 91.8991 153.7 91.8956 154.388C91.8991 155.106 91.7358 155.75 91.4055 156.322C91.0753 156.89 90.6154 157.338 90.0259 157.664C89.4364 157.991 88.7493 158.153 87.9645 158.149ZM87.9538 156.551C88.3409 156.551 88.6871 156.457 88.9925 156.269C89.2979 156.081 89.5394 155.827 89.717 155.507C89.8945 155.187 89.9815 154.829 89.978 154.431C89.9815 154.04 89.8963 153.687 89.7223 153.371C89.5518 153.055 89.3157 152.805 89.0138 152.62C88.712 152.435 88.3675 152.343 87.9805 152.343C87.6928 152.343 87.4247 152.398 87.1761 152.508C86.9276 152.618 86.7109 152.771 86.5263 152.966C86.3416 153.158 86.196 153.382 86.0895 153.637C85.9865 153.89 85.9332 154.159 85.9297 154.447C85.9332 154.827 86.022 155.177 86.196 155.496C86.37 155.816 86.6097 156.072 86.9151 156.263C87.2205 156.455 87.5668 156.551 87.9538 156.551Z" fill="black"/>
<path d="M22.7567 83.9418C23.2788 83.9453 23.7866 84.0376 24.2802 84.2188C24.7773 84.3963 25.2248 84.6875 25.6225 85.0923C26.0202 85.4936 26.3363 86.0316 26.5707 86.7063C26.805 87.381 26.9222 88.2156 26.9222 89.2099C26.9258 90.1474 26.8263 90.9854 26.6239 91.7241C26.4251 92.4592 26.1392 93.0806 25.7663 93.5884C25.3935 94.0962 24.9442 94.4833 24.4187 94.7496C23.8931 95.016 23.3018 95.1491 22.6449 95.1491C21.956 95.1491 21.3452 95.0142 20.8125 94.7443C20.2834 94.4744 19.8555 94.1051 19.5288 93.6364C19.2021 93.1676 19.0014 92.6314 18.9268 92.0277H20.8711C20.9705 92.4609 21.1729 92.8054 21.4783 93.0611C21.7873 93.3132 22.1761 93.4393 22.6449 93.4393C23.4013 93.4393 23.9837 93.1108 24.392 92.4538C24.8004 91.7969 25.0046 90.8842 25.0046 89.7159H24.93C24.756 90.0284 24.5305 90.2983 24.2536 90.5256C23.9766 90.7493 23.6623 90.9215 23.3107 91.0423C22.9627 91.163 22.5934 91.2234 22.2028 91.2234C21.5636 91.2234 20.9883 91.0707 20.4769 90.7653C19.9691 90.4599 19.5661 90.0408 19.2678 89.5082C18.973 88.9755 18.8239 88.3665 18.8203 87.6811C18.8203 86.9709 18.9837 86.3335 19.3104 85.7688C19.6406 85.2006 20.1005 84.7532 20.69 84.4265C21.2795 84.0962 21.9684 83.9347 22.7567 83.9418ZM22.7621 85.5398C22.3786 85.5398 22.0323 85.6339 21.7234 85.8221C21.418 86.0067 21.1765 86.2589 20.9989 86.5785C20.8249 86.8945 20.7379 87.2479 20.7379 87.6385C20.7415 88.0256 20.8285 88.3771 20.9989 88.6932C21.1729 89.0092 21.4091 89.2596 21.7074 89.4442C22.0092 89.6289 22.3537 89.7212 22.7408 89.7212C23.0284 89.7212 23.2965 89.6662 23.5451 89.5561C23.7937 89.446 24.0103 89.2933 24.195 89.098C24.3832 88.8991 24.5288 88.6737 24.6317 88.4215C24.7383 88.1694 24.7898 87.9031 24.7862 87.6225C24.7862 87.2496 24.6974 86.9052 24.5199 86.5891C24.3459 86.2731 24.1062 86.0192 23.8008 85.8274C23.4989 85.6357 23.1527 85.5398 22.7621 85.5398Z" fill="black"/>
<path d="M148.885 94.1491C148.118 94.1491 147.436 94.0178 146.839 93.755C146.246 93.4922 145.777 93.1264 145.433 92.6577C145.088 92.1889 144.906 91.6474 144.884 91.033H146.887C146.905 91.3278 147.002 91.5852 147.18 91.8054C147.358 92.022 147.594 92.1907 147.888 92.3114C148.183 92.4322 148.513 92.4925 148.879 92.4925C149.27 92.4925 149.616 92.4251 149.918 92.2901C150.22 92.1516 150.456 91.9599 150.626 91.7148C150.797 91.4698 150.88 91.1875 150.877 90.8679C150.88 90.5376 150.795 90.2464 150.621 89.9943C150.447 89.7422 150.195 89.5451 149.865 89.4031C149.538 89.261 149.144 89.19 148.682 89.19H147.718V87.6665H148.682C149.062 87.6665 149.394 87.6009 149.678 87.4695C149.966 87.3381 150.191 87.1534 150.355 86.9155C150.518 86.674 150.598 86.3952 150.594 86.0792C150.598 85.7702 150.529 85.5021 150.387 85.2749C150.248 85.044 150.051 84.8647 149.795 84.7369C149.543 84.609 149.247 84.5451 148.906 84.5451C148.572 84.5451 148.263 84.6055 147.979 84.7262C147.695 84.8469 147.466 85.0192 147.292 85.2429C147.118 85.4631 147.026 85.7259 147.015 86.0312H145.113C145.127 85.4205 145.303 84.8842 145.641 84.4226C145.982 83.9574 146.436 83.5952 147.004 83.3359C147.572 83.0732 148.21 82.9418 148.917 82.9418C149.645 82.9418 150.277 83.0785 150.813 83.3519C151.353 83.6218 151.77 83.9858 152.065 84.4439C152.359 84.902 152.507 85.408 152.507 85.962C152.51 86.5763 152.329 87.0913 151.963 87.5067C151.601 87.9222 151.125 88.1939 150.536 88.3217V88.407C151.303 88.5135 151.891 88.7976 152.299 89.2592C152.711 89.7173 152.915 90.2873 152.912 90.9691C152.912 91.5799 152.738 92.1268 152.39 92.6097C152.045 93.0891 151.569 93.4656 150.962 93.739C150.358 94.0124 149.666 94.1491 148.885 94.1491Z" fill="black"/>
<path d="M120.407 35.0909V46H118.43V37.0138H118.366L115.815 38.6438V36.8327L118.526 35.0909H120.407Z" fill="black"/>
<path d="M135.772 118.976V117.404L140.401 110.091H141.712V112.328H140.913L137.797 117.266V117.351H144.258V118.976H135.772ZM140.977 121V118.496L140.998 117.793V110.091H142.862V121H140.977Z" fill="black"/>
<path d="M119.762 145.149C119.052 145.149 118.416 145.016 117.855 144.75C117.294 144.48 116.848 144.11 116.518 143.642C116.191 143.173 116.017 142.637 115.996 142.033H117.914C117.949 142.48 118.143 142.846 118.494 143.13C118.846 143.411 119.268 143.551 119.762 143.551C120.149 143.551 120.494 143.462 120.795 143.285C121.097 143.107 121.335 142.86 121.509 142.544C121.683 142.228 121.768 141.868 121.765 141.463C121.768 141.051 121.681 140.685 121.504 140.366C121.326 140.046 121.083 139.796 120.774 139.615C120.465 139.43 120.11 139.338 119.709 139.338C119.382 139.334 119.061 139.395 118.745 139.519C118.429 139.643 118.178 139.806 117.994 140.009L116.209 139.716L116.779 134.091H123.107V135.742H118.414L118.1 138.635H118.164C118.366 138.397 118.652 138.2 119.022 138.043C119.391 137.884 119.796 137.804 120.236 137.804C120.897 137.804 121.486 137.96 122.005 138.272C122.523 138.581 122.931 139.007 123.23 139.551C123.528 140.094 123.677 140.716 123.677 141.415C123.677 142.136 123.51 142.779 123.176 143.343C122.846 143.904 122.386 144.347 121.797 144.67C121.211 144.989 120.533 145.149 119.762 145.149Z" fill="black"/>
<path d="M53.369 145L58.0085 135.817V135.742H52.6232V134.091H60.054V135.779L55.4197 145H53.369Z" fill="black"/>
<path d="M32.8473 121.149C32.0554 121.149 31.3523 121.016 30.7379 120.75C30.1271 120.483 29.6477 120.119 29.2997 119.658C28.9553 119.192 28.7848 118.665 28.7884 118.076C28.7848 117.618 28.8842 117.197 29.0866 116.813C29.2891 116.43 29.5625 116.11 29.907 115.854C30.255 115.595 30.642 115.43 31.0682 115.359V115.284C30.5071 115.16 30.0526 114.874 29.7045 114.427C29.3601 113.976 29.1896 113.456 29.1932 112.866C29.1896 112.305 29.3459 111.804 29.6619 111.364C29.978 110.924 30.4112 110.577 30.9616 110.325C31.5121 110.07 32.1406 109.942 32.8473 109.942C33.5469 109.942 34.1701 110.07 34.717 110.325C35.2674 110.577 35.7006 110.924 36.0167 111.364C36.3363 111.804 36.4961 112.305 36.4961 112.866C36.4961 113.456 36.3203 113.976 35.9688 114.427C35.6207 114.874 35.1715 115.16 34.6211 115.284V115.359C35.0472 115.43 35.4308 115.595 35.7717 115.854C36.1161 116.11 36.3896 116.43 36.592 116.813C36.7979 117.197 36.9009 117.618 36.9009 118.076C36.9009 118.665 36.7269 119.192 36.3789 119.658C36.0309 120.119 35.5515 120.483 34.9407 120.75C34.3335 121.016 33.6357 121.149 32.8473 121.149ZM32.8473 119.626C33.2557 119.626 33.6108 119.556 33.9126 119.418C34.2145 119.276 34.4489 119.077 34.6158 118.821C34.7827 118.566 34.8679 118.271 34.8714 117.937C34.8679 117.589 34.7773 117.282 34.5998 117.016C34.4258 116.746 34.1861 116.534 33.8807 116.382C33.5788 116.229 33.2344 116.153 32.8473 116.153C32.4567 116.153 32.1087 116.229 31.8033 116.382C31.4979 116.534 31.2564 116.746 31.0788 117.016C30.9048 117.282 30.8196 117.589 30.8232 117.937C30.8196 118.271 30.9013 118.566 31.0682 118.821C31.2351 119.074 31.4695 119.271 31.7713 119.413C32.0767 119.555 32.4354 119.626 32.8473 119.626ZM32.8473 114.656C33.1811 114.656 33.4759 114.588 33.7315 114.453C33.9908 114.319 34.195 114.13 34.3441 113.889C34.4933 113.647 34.5696 113.369 34.5732 113.053C34.5696 112.74 34.495 112.467 34.3494 112.232C34.2038 111.994 34.0014 111.811 33.7422 111.684C33.483 111.552 33.1847 111.487 32.8473 111.487C32.5028 111.487 32.1992 111.552 31.9364 111.684C31.6772 111.811 31.4748 111.994 31.3292 112.232C31.1871 112.467 31.1179 112.74 31.1214 113.053C31.1179 113.369 31.1889 113.647 31.3345 113.889C31.4837 114.127 31.6879 114.315 31.9471 114.453C32.2099 114.588 32.5099 114.656 32.8473 114.656Z" fill="black"/>
<path d="M33.4066 56.0909V67H31.4304V58.0138H31.3665L28.815 59.6438V57.8327L31.5263 56.0909H33.4066ZM40.2088 67.2077C39.3317 67.2077 38.5788 66.9858 37.9503 66.5419C37.3253 66.0945 36.8441 65.4499 36.5067 64.6083C36.1729 63.7631 36.006 62.7457 36.006 61.5561C36.0096 60.3665 36.1783 59.3544 36.5121 58.5199C36.8494 57.6818 37.3306 57.0426 37.9556 56.6023C38.5842 56.1619 39.3352 55.9418 40.2088 55.9418C41.0824 55.9418 41.8335 56.1619 42.462 56.6023C43.0906 57.0426 43.5717 57.6818 43.9055 58.5199C44.2429 59.358 44.4116 60.37 44.4116 61.5561C44.4116 62.7493 44.2429 63.7685 43.9055 64.6136C43.5717 65.4553 43.0906 66.098 42.462 66.5419C41.837 66.9858 41.0859 67.2077 40.2088 67.2077ZM40.2088 65.5405C40.8906 65.5405 41.4286 65.2049 41.8228 64.5337C42.2205 63.859 42.4194 62.8665 42.4194 61.5561C42.4194 60.6896 42.3288 59.9616 42.1477 59.3722C41.9666 58.7827 41.7109 58.3388 41.3807 58.0405C41.0504 57.7386 40.6598 57.5877 40.2088 57.5877C39.5305 57.5877 38.9943 57.9251 38.6001 58.5998C38.206 59.271 38.0071 60.2564 38.0036 61.5561C38 62.4261 38.087 63.1577 38.2646 63.7507C38.4457 64.3437 38.7013 64.7912 39.0316 65.093C39.3619 65.3913 39.7543 65.5405 40.2088 65.5405Z" fill="black"/>
<path d="M53.4066 35.0909V46H51.4304V37.0138H51.3665L48.815 38.6438V36.8327L51.5263 35.0909H53.4066ZM60.6136 35.0909V46H58.6374V37.0138H58.5735L56.022 38.6438V36.8327L58.7333 35.0909H60.6136Z" fill="black"/>
<path d="M135.969 68V66.5724L139.757 62.8597C140.119 62.494 140.421 62.169 140.662 61.8849C140.904 61.6009 141.085 61.3256 141.206 61.0593C141.326 60.793 141.387 60.5089 141.387 60.207C141.387 59.8626 141.309 59.5678 141.152 59.3228C140.996 59.0742 140.781 58.8825 140.508 58.7475C140.234 58.6126 139.924 58.5451 139.576 58.5451C139.217 58.5451 138.903 58.6197 138.633 58.7688C138.363 58.9144 138.153 59.1222 138.004 59.392C137.859 59.6619 137.786 59.9833 137.786 60.3562H135.906C135.906 59.6637 136.064 59.0618 136.38 58.5504C136.696 58.0391 137.131 57.6431 137.685 57.3626C138.242 57.082 138.881 56.9418 139.602 56.9418C140.334 56.9418 140.977 57.0785 141.531 57.3519C142.085 57.6254 142.514 58 142.82 58.4759C143.129 58.9517 143.283 59.495 143.283 60.1058C143.283 60.5142 143.205 60.9155 143.049 61.3097C142.892 61.7038 142.617 62.1406 142.223 62.62C141.832 63.0994 141.284 63.68 140.577 64.3619L138.697 66.2741V66.3487H143.448V68H135.969Z" fill="black"/>
<circle cx="89" cy="90" r="4.5" fill="#7DAEBD" stroke="black"/>
</svg>
